<svg width="199" height="199" viewBox="0 0 199 199" fill="none" xmlns="http://www.w3.org/2000/svg">
<rect x="-41" y="156.99" width="280" height="58" transform="rotate(-45 -41 156.99)" fill="#DDBD68"/>
<path d="M42.9177 131.055L45.7942 128.178L35.0264 110.843L52.3618 121.611L55.2638 118.709L42.5104 97.4532L39.8884 100.075L50.6308 117.436L33.4736 106.49L30.6734 109.29L41.6194 126.447L24.2585 115.705L21.6366 118.327L42.9177 131.055ZM59.5618 110.643L61.4455 112.527L68.6241 105.349L66.7404 103.465L64.3475 105.858L51.1105 92.6206L53.5033 90.2277L51.6196 88.344L44.441 95.5226L46.3248 97.4063L48.7176 95.0134L61.9547 108.25L59.5618 110.643ZM55.2359 84.7277L72.2404 101.732L74.6333 99.3393L60.098 84.8041L82.3973 91.5753L85.9102 88.0624L68.9057 71.0579L66.5129 73.4508L80.9718 87.9097L58.7743 81.1893L55.2359 84.7277ZM72.7865 67.1771L89.791 84.1816L92.1839 81.7887L77.6486 67.2534L99.9479 74.0247L103.461 70.5118L86.4563 53.5073L84.0635 55.9001L98.5224 70.3591L76.3249 63.6387L72.7865 67.1771ZM90.3371 49.6265L107.342 66.631L118.873 55.0995L116.811 53.0376L107.673 62.1762L102.021 56.525L108.767 49.7792L106.705 47.7173L99.9594 54.4631L94.7919 49.2955L103.931 40.1569L101.869 38.095L90.3371 49.6265ZM124.178 49.7949L117.025 42.6418L119.57 40.0962L131.891 42.0818L134.818 39.1544L122.218 37.0924C125.603 32.5868 124.458 29.9139 122.141 27.5974C118.068 23.5245 114.326 25.6373 110.177 29.7866L104.78 35.1833L121.785 52.1878L124.178 49.7949ZM112.366 31.6194C114.861 29.1248 117.126 27.4701 119.748 30.0921C122.37 32.714 120.69 34.9542 118.196 37.4488L115.014 40.6308L109.184 34.8014L112.366 31.6194Z" fill="#3D3D3D"/>
</svg>
